<?xml version="1.0" encoding="UTF-8" standalone="no"?>
<!DOCTYPE svg PUBLIC "-//W3C//DTD SVG 1.1//EN" "http://www.w3.org/Graphics/SVG/1.1/DTD/svg11.dtd">
<svg width="100%" height="100%" viewBox="0 0 55 34" version="1.1" xmlns="http://www.w3.org/2000/svg" xmlns:xlink="http://www.w3.org/1999/xlink" xml:space="preserve" xmlns:serif="http://www.serif.com/" style="fill-rule:evenodd;clip-rule:evenodd;stroke-linejoin:round;stroke-miterlimit:2;">
    <g transform="matrix(1,0,0,1,-322.653,-128.126)">
        <g transform="matrix(1,0,0,1,366.266,132.895)">
            <path d="M0,24.209C-0.646,24.361 -1.306,24.438 -1.963,24.439L-32.329,24.439C-35.467,24.439 -38.165,22.304 -38.888,19.244C-39.304,17.489 -39.011,15.679 -38.064,14.145C-37.117,12.611 -35.63,11.537 -33.876,11.122C-33.362,11.001 -32.837,10.938 -32.315,10.938C-31.584,10.938 -30.859,11.059 -30.163,11.294C-29.547,11.503 -28.87,11.438 -28.306,11.113C-27.741,10.79 -27.344,10.24 -27.213,9.603C-26.04,3.905 -20.959,-0.231 -15.13,-0.231C-10.593,-0.231 -6.431,2.253 -4.271,6.25C-3.862,7.005 -3.062,7.466 -2.204,7.439C-2.119,7.437 -2.034,7.436 -1.949,7.436C2.003,7.436 5.4,10.127 6.312,13.98C7.393,18.54 4.56,23.129 0,24.209M10.729,12.935C10.048,10.062 8.395,7.48 6.072,5.666C4.047,4.085 1.58,3.133 -0.963,2.936C-4.061,-1.849 -9.373,-4.769 -15.13,-4.769C-19.038,-4.769 -22.848,-3.402 -25.857,-0.921C-28.229,1.034 -30.021,3.606 -31.039,6.474C-32.326,6.326 -33.646,6.404 -34.922,6.706C-37.854,7.4 -40.343,9.195 -41.927,11.762C-43.51,14.327 -43.999,17.355 -43.305,20.289C-42.716,22.776 -41.285,25.012 -39.273,26.581C-37.294,28.127 -34.828,28.978 -32.329,28.978L-1.962,28.978C-0.953,28.978 0.059,28.858 1.045,28.625C8.04,26.969 12.385,19.93 10.729,12.935" style="fill:rgb(173,220,224);fill-rule:nonzero;"/>
        </g>
    </g>
</svg>
