<?xml version="1.0" encoding="UTF-8" standalone="no"?>
<!DOCTYPE svg PUBLIC "-//W3C//DTD SVG 1.1//EN" "http://www.w3.org/Graphics/SVG/1.1/DTD/svg11.dtd">
<svg width="100%" height="100%" viewBox="0 0 55 50" version="1.1" xmlns="http://www.w3.org/2000/svg" xmlns:xlink="http://www.w3.org/1999/xlink" xml:space="preserve" xmlns:serif="http://www.serif.com/" style="fill-rule:evenodd;clip-rule:evenodd;stroke-linejoin:round;stroke-miterlimit:2;">
    <g transform="matrix(1,0,0,1,-422.653,-222.507)">
        <g transform="matrix(1,0,0,1,476.994,238.391)">
            <path d="M0,1.819C-0.68,-1.054 -2.334,-3.636 -4.656,-5.45C-6.682,-7.031 -9.148,-7.983 -11.691,-8.18C-14.789,-12.964 -20.102,-15.884 -25.858,-15.884C-29.766,-15.884 -33.576,-14.518 -36.586,-12.036C-38.957,-10.081 -40.75,-7.509 -41.768,-4.642C-43.053,-4.789 -44.375,-4.711 -45.649,-4.41C-48.584,-3.715 -51.07,-1.92 -52.654,0.646C-54.238,3.212 -54.727,6.24 -54.033,9.174C-53.444,11.661 -52.012,13.896 -50.002,15.466C-48.99,16.255 -47.853,16.863 -46.648,17.269L-44.908,13.067C-47.213,12.413 -49.04,10.564 -49.617,8.129C-50.032,6.374 -49.738,4.563 -48.793,3.029C-47.846,1.496 -46.358,0.422 -44.604,0.007C-44.09,-0.115 -43.565,-0.177 -43.043,-0.177C-42.312,-0.177 -41.588,-0.057 -40.891,0.179C-40.275,0.388 -39.599,0.322 -39.034,-0.002C-38.47,-0.325 -38.071,-0.875 -37.939,-1.513C-36.768,-7.21 -31.687,-11.347 -25.858,-11.347C-21.32,-11.347 -17.158,-8.863 -14.998,-4.865C-14.59,-4.11 -13.791,-3.649 -12.933,-3.676C-12.848,-3.679 -12.764,-3.68 -12.678,-3.68C-8.725,-3.68 -5.328,-0.989 -4.416,2.864C-3.531,6.602 -5.273,10.358 -8.441,12.186C-8.495,12.394 -8.563,12.601 -8.647,12.804L-10.677,17.703C-10.344,17.652 -10.012,17.588 -9.684,17.51C-2.688,15.854 1.656,8.815 0,1.819" style="fill:rgb(173,220,224);fill-rule:nonzero;"/>
        </g>
        <g transform="matrix(1,0,0,1,432.764,246.84)">
            <path d="M0,17.408C-0.29,17.408 -0.584,17.352 -0.868,17.234C-2.025,16.755 -2.576,15.428 -2.096,14.27L3.107,1.707C3.587,0.55 4.914,0 6.072,0.479C7.23,0.959 7.779,2.286 7.301,3.444L2.096,16.006C1.734,16.88 0.89,17.408 0,17.408" style="fill:rgb(29,87,220);fill-rule:nonzero;"/>
        </g>
        <g transform="matrix(1,0,0,1,458.846,246.84)">
            <path d="M0,17.408C-0.29,17.408 -0.584,17.352 -0.868,17.234C-2.026,16.755 -2.576,15.428 -2.096,14.27L3.107,1.707C3.586,0.55 4.914,0 6.072,0.479C7.229,0.959 7.779,2.286 7.3,3.444L2.097,16.006C1.734,16.88 0.889,17.408 0,17.408" style="fill:rgb(29,87,220);fill-rule:nonzero;"/>
        </g>
        <g transform="matrix(1,0,0,1,438.299,246.84)">
            <path d="M0,25.034C-0.29,25.034 -0.584,24.978 -0.868,24.861C-2.025,24.381 -2.576,23.054 -2.096,21.896L6.266,1.708C6.746,0.55 8.073,0 9.23,0.479C10.389,0.959 10.938,2.287 10.459,3.444L2.097,23.633C1.734,24.507 0.89,25.034 0,25.034" style="fill:rgb(29,87,220);fill-rule:nonzero;"/>
        </g>
        <g transform="matrix(1,0,0,1,446.943,246.84)">
            <path d="M0,25.151C-0.289,25.151 -0.583,25.095 -0.867,24.978C-2.025,24.498 -2.574,23.171 -2.096,22.013L6.315,1.708C6.795,0.55 8.123,0 9.281,0.479C10.438,0.959 10.988,2.287 10.508,3.444L2.098,23.75C1.736,24.624 0.891,25.151 0,25.151" style="fill:rgb(29,87,220);fill-rule:nonzero;"/>
        </g>
    </g>
</svg>
