<?xml version="1.0" encoding="UTF-8" standalone="no"?>
<!DOCTYPE svg PUBLIC "-//W3C//DTD SVG 1.1//EN" "http://www.w3.org/Graphics/SVG/1.1/DTD/svg11.dtd">
<svg width="100%" height="100%" viewBox="0 0 55 50" version="1.1" xmlns="http://www.w3.org/2000/svg" xmlns:xlink="http://www.w3.org/1999/xlink" xml:space="preserve" xmlns:serif="http://www.serif.com/" style="fill-rule:evenodd;clip-rule:evenodd;stroke-linejoin:round;stroke-miterlimit:2;">
    <g transform="matrix(1,0,0,1,-322.654,-222.611)">
        <g transform="matrix(1,0,0,1,376.995,238.654)">
            <path d="M0,1.66C-0.68,-1.213 -2.334,-3.795 -4.657,-5.609C-6.683,-7.19 -9.149,-8.142 -11.692,-8.339C-14.789,-13.123 -20.102,-16.043 -25.859,-16.043C-29.767,-16.043 -33.576,-14.677 -36.586,-12.195C-38.958,-10.24 -40.75,-7.668 -41.768,-4.801C-43.054,-4.948 -44.375,-4.87 -45.65,-4.569C-48.584,-3.874 -51.072,-2.079 -52.655,0.487C-54.238,3.053 -54.728,6.081 -54.033,9.015C-53.444,11.502 -52.013,13.737 -50.001,15.307C-48.022,16.853 -45.557,17.703 -43.058,17.703L-42.069,17.703L-40.189,13.165L-43.058,13.165C-46.196,13.165 -48.893,11.029 -49.617,7.97C-50.033,6.215 -49.74,4.404 -48.793,2.87C-47.846,1.337 -46.359,0.263 -44.604,-0.152C-44.091,-0.274 -43.565,-0.336 -43.044,-0.336C-42.313,-0.336 -41.588,-0.216 -40.892,0.02C-40.275,0.229 -39.599,0.163 -39.035,-0.161C-38.47,-0.484 -38.072,-1.034 -37.941,-1.672C-36.769,-7.369 -31.687,-11.506 -25.859,-11.506C-21.32,-11.506 -17.159,-9.022 -14.999,-5.024C-14.591,-4.269 -13.791,-3.808 -12.934,-3.835C-12.849,-3.838 -12.763,-3.839 -12.679,-3.839C-8.726,-3.839 -5.329,-1.148 -4.417,2.705C-3.337,7.266 -6.169,11.855 -10.729,12.935C-11.375,13.087 -12.034,13.164 -12.691,13.165L-12.732,13.165L-14.612,17.703L-12.69,17.703C-11.682,17.703 -10.67,17.584 -9.684,17.351C-2.688,15.695 1.656,8.656 0,1.66" style="fill:rgb(173,220,224);fill-rule:nonzero;"/>
        </g>
        <g transform="matrix(1,0,0,1,337.588,246.943)">
            <path d="M0,17.408C-0.289,17.408 -0.583,17.352 -0.867,17.234C-2.025,16.755 -2.575,15.428 -2.096,14.27L3.108,1.707C3.588,0.55 4.916,0 6.073,0.479C7.231,0.959 7.781,2.286 7.301,3.444L2.098,16.006C1.736,16.88 0.891,17.408 0,17.408" style="fill:rgb(29,87,220);fill-rule:nonzero;"/>
        </g>
        <g transform="matrix(1,0,0,1,343.123,246.943)">
            <path d="M0,25.034C-0.29,25.034 -0.584,24.978 -0.868,24.861C-2.025,24.381 -2.575,23.054 -2.096,21.896L6.267,1.708C6.746,0.55 8.073,0 9.231,0.479C10.389,0.959 10.939,2.287 10.459,3.444L2.097,23.633C1.735,24.507 0.89,25.034 0,25.034" style="fill:rgb(29,87,220);fill-rule:nonzero;"/>
        </g>
        <g transform="matrix(1,0,0,1,356.263,246.943)">
            <path d="M0,14.302C-0.29,14.302 -0.583,14.246 -0.868,14.128C-2.025,13.649 -2.575,12.322 -2.096,11.164L1.821,1.708C2.301,0.55 3.628,0 4.786,0.479C5.944,0.959 6.494,2.287 6.014,3.444L2.098,12.901C1.736,13.774 0.891,14.302 0,14.302" style="fill:rgb(29,87,220);fill-rule:nonzero;"/>
        </g>
    </g>
</svg>
