<?xml version="1.0" encoding="UTF-8" standalone="no"?>
<!DOCTYPE svg PUBLIC "-//W3C//DTD SVG 1.1//EN" "http://www.w3.org/Graphics/SVG/1.1/DTD/svg11.dtd">
<svg width="100%" height="100%" viewBox="0 0 55 46" version="1.1" xmlns="http://www.w3.org/2000/svg" xmlns:xlink="http://www.w3.org/1999/xlink" xml:space="preserve" xmlns:serif="http://www.serif.com/" style="fill-rule:evenodd;clip-rule:evenodd;stroke-linejoin:round;stroke-miterlimit:2;">
    <g transform="matrix(1,0,0,1,-122.654,-222.507)">
        <g transform="matrix(1,0,0,1,145.184,253.811)">
            <path d="M0,3.466C-0.289,3.466 -0.583,3.41 -0.867,3.292C-2.025,2.813 -2.575,1.486 -2.096,0.326L0.22,-5.263C0.7,-6.42 2.027,-6.971 3.185,-6.491C4.342,-6.012 4.893,-4.684 4.413,-3.527L2.097,2.065C1.735,2.938 0.89,3.466 0,3.466M-2.888,10.437C-3.177,10.437 -3.471,10.382 -3.755,10.265C-4.914,9.785 -5.463,8.457 -4.983,7.299L-4.411,5.918C-3.932,4.76 -2.604,4.211 -1.446,4.69C-0.289,5.169 0.261,6.497 -0.218,7.654L-0.791,9.035C-1.153,9.91 -1.998,10.437 -2.888,10.437" style="fill:rgb(29,87,220);fill-rule:nonzero;"/>
        </g>
        <g transform="matrix(1,0,0,1,153.877,258.02)">
            <path d="M0,-0.743C-0.29,-0.743 -0.583,-0.799 -0.868,-0.917C-2.025,-1.396 -2.575,-2.723 -2.095,-3.883L0.22,-9.472C0.7,-10.629 2.027,-11.18 3.185,-10.7C4.343,-10.221 4.893,-8.893 4.413,-7.736L2.097,-2.144C1.735,-1.271 0.89,-0.743 0,-0.743M-4.631,10.437C-4.921,10.437 -5.214,10.382 -5.499,10.263C-6.657,9.785 -7.206,8.457 -6.727,7.299L-4.411,1.709C-3.931,0.551 -2.604,0.002 -1.446,0.481C-0.289,0.96 0.261,2.288 -0.218,3.445L-2.534,9.035C-2.896,9.909 -3.741,10.437 -4.631,10.437" style="fill:rgb(29,87,220);fill-rule:nonzero;"/>
        </g>
        <g transform="matrix(1,0,0,1,176.995,238.55)">
            <path d="M0,1.661C-0.68,-1.212 -2.334,-3.794 -4.657,-5.609C-6.682,-7.19 -9.148,-8.142 -11.691,-8.338C-14.789,-13.122 -20.102,-16.043 -25.859,-16.043C-29.767,-16.043 -33.576,-14.677 -36.586,-12.194C-38.958,-10.238 -40.75,-7.668 -41.768,-4.8C-43.053,-4.947 -44.375,-4.869 -45.65,-4.568C-48.584,-3.873 -51.071,-2.078 -52.655,0.487C-54.238,3.054 -54.728,6.082 -54.033,9.015C-53.445,11.503 -52.013,13.738 -50.002,15.307C-48.023,16.853 -45.557,17.704 -43.058,17.704L-37.362,17.704L-35.482,13.166L-43.058,13.166C-46.196,13.166 -48.893,11.029 -49.617,7.971C-50.033,6.216 -49.739,4.404 -48.793,2.871C-47.847,1.338 -46.359,0.264 -44.604,-0.151C-44.091,-0.273 -43.566,-0.335 -43.044,-0.335C-42.312,-0.335 -41.588,-0.215 -40.892,0.021C-40.275,0.229 -39.599,0.163 -39.035,-0.159C-38.47,-0.484 -38.072,-1.033 -37.94,-1.671C-36.768,-7.369 -31.687,-11.505 -25.859,-11.505C-21.321,-11.505 -17.159,-9.022 -14.999,-5.024C-14.59,-4.269 -13.791,-3.808 -12.933,-3.834C-12.848,-3.837 -12.764,-3.838 -12.678,-3.838C-8.726,-3.838 -5.329,-1.147 -4.416,2.705C-3.337,7.266 -6.169,11.855 -10.729,12.935C-11.374,13.088 -12.035,13.166 -12.691,13.166L-16.718,13.166L-18.598,17.704L-12.69,17.704C-11.682,17.704 -10.67,17.585 -9.684,17.351C-2.688,15.695 1.656,8.656 0,1.661" style="fill:rgb(173,220,224);fill-rule:nonzero;"/>
        </g>
    </g>
</svg>
