<?xml version="1.0" encoding="UTF-8" standalone="no"?><!DOCTYPE svg PUBLIC "-//W3C//DTD SVG 1.1//EN" "http://www.w3.org/Graphics/SVG/1.1/DTD/svg11.dtd"><svg width="100%" height="100%" viewBox="0 0 20 14" version="1.1" xmlns="http://www.w3.org/2000/svg" xmlns:xlink="http://www.w3.org/1999/xlink" xml:space="preserve" xmlns:serif="http://www.serif.com/" style="fill-rule:evenodd;clip-rule:evenodd;stroke-linejoin:round;stroke-miterlimit:2;"><g><path d="M12.972,3.124c-0.349,-0 -0.632,-0.286 -0.632,-0.639l0,-1.847c0,-0.353 0.283,-0.638 0.632,-0.638c0.35,-0 0.633,0.285 0.633,0.638l-0,1.847c-0,0.353 -0.283,0.639 -0.633,0.639" style="fill:#e4c329;fill-rule:nonzero;"/><path d="M9.768,4.464c-0.162,-0 -0.324,-0.063 -0.447,-0.188l-1.294,-1.306c-0.247,-0.249 -0.247,-0.653 -0,-0.902c0.247,-0.25 0.647,-0.249 0.894,-0l1.294,1.306c0.247,0.249 0.247,0.653 0,0.902c-0.123,0.125 -0.285,0.188 -0.447,0.188" style="fill:#e4c329;fill-rule:nonzero;"/><path d="M17.471,12.239c-0.162,-0 -0.324,-0.063 -0.447,-0.187l-1.294,-1.307c-0.247,-0.248 -0.247,-0.653 -0,-0.902c0.247,-0.249 0.647,-0.249 0.894,-0l1.294,1.306c0.247,0.25 0.247,0.653 0,0.903c-0.123,0.124 -0.285,0.187 -0.447,0.187" style="fill:#e4c329;fill-rule:nonzero;"/><path d="M19.335,7.698l-1.831,-0c-0.349,-0 -0.632,-0.286 -0.632,-0.639c0,-0.351 0.283,-0.637 0.632,-0.637l1.831,-0c0.349,-0 0.632,0.286 0.632,0.637c-0,0.353 -0.283,0.639 -0.632,0.639" style="fill:#e4c329;fill-rule:nonzero;"/><path d="M16.177,4.464c-0.162,-0 -0.324,-0.063 -0.447,-0.188c-0.247,-0.249 -0.247,-0.653 -0,-0.902l1.294,-1.306c0.247,-0.25 0.647,-0.25 0.894,-0c0.247,0.249 0.247,0.653 0,0.902l-1.294,1.306c-0.123,0.125 -0.285,0.188 -0.447,0.188" style="fill:#e4c329;fill-rule:nonzero;"/><path d="M16.319,7.059c-0,-1.862 -1.502,-3.377 -3.347,-3.377c-1.12,0 -2.113,0.558 -2.72,1.414c-0,-0 1.24,1.007 1.007,0.772c0.375,-0.549 1.004,-0.909 1.713,-0.909c1.148,-0 2.082,0.942 2.082,2.1c0,0.465 -0.15,0.895 -0.404,1.243c-0.187,0.021 0.36,1.549 0.523,1.3c0.702,-0.619 1.146,-1.53 1.146,-2.543" style="fill:#e4c329;fill-rule:nonzero;"/><path d="M12.154,12.633c-0.18,0.043 -0.364,0.064 -0.547,0.065l-8.463,-0c-0.874,-0 -1.626,-0.601 -1.827,-1.462c-0.116,-0.493 -0.035,-1.002 0.229,-1.434c0.264,-0.431 0.679,-0.733 1.167,-0.85c0.144,-0.034 0.29,-0.052 0.435,-0.052c0.204,0 0.406,0.034 0.6,0.1c0.172,0.059 0.36,0.041 0.518,-0.051c0.157,-0.091 0.268,-0.245 0.304,-0.424c0.327,-1.603 1.743,-2.767 3.367,-2.767c1.265,0 2.424,0.699 3.026,1.823c0.114,0.213 0.337,0.342 0.576,0.335c0.024,-0.001 0.048,-0.001 0.071,-0.001c1.102,-0 2.048,0.757 2.303,1.841c0.301,1.282 -0.489,2.573 -1.759,2.877m2.989,-3.171c-0.189,-0.808 -0.65,-1.535 -1.297,-2.045c-0.565,-0.445 -1.252,-0.712 -1.961,-0.768c-0.863,-1.346 -2.343,-2.167 -3.948,-2.167c-1.089,-0 -2.15,0.384 -2.989,1.082c-0.661,0.55 -1.16,1.274 -1.444,2.08c-0.359,-0.041 -0.727,-0.019 -1.082,0.066c-0.817,0.195 -1.511,0.7 -1.952,1.422c-0.441,0.721 -0.578,1.573 -0.384,2.398c0.164,0.7 0.563,1.329 1.123,1.77c0.552,0.435 1.239,0.674 1.935,0.674l8.463,0c0.281,0 0.563,-0.033 0.838,-0.099c1.949,-0.466 3.16,-2.446 2.698,-4.413" style="fill:#addce0;fill-rule:nonzero;"/></g></svg>