<?xml version="1.0" encoding="UTF-8" standalone="no"?>
<!DOCTYPE svg PUBLIC "-//W3C//DTD SVG 1.1//EN" "http://www.w3.org/Graphics/SVG/1.1/DTD/svg11.dtd">
<svg width="100%" height="100%" viewBox="0 0 55 50" version="1.1" xmlns="http://www.w3.org/2000/svg" xmlns:xlink="http://www.w3.org/1999/xlink" xml:space="preserve" xmlns:serif="http://www.serif.com/" style="fill-rule:evenodd;clip-rule:evenodd;stroke-linejoin:round;stroke-miterlimit:2;">
    <g transform="matrix(1,0,0,1,-422.654,-320.317)">
        <g transform="matrix(1,0,0,1,476.994,336.361)">
            <path d="M0,1.659C-0.68,-1.214 -2.333,-3.795 -4.657,-5.609C-6.683,-7.191 -9.147,-8.143 -11.691,-8.34C-14.789,-13.124 -20.103,-16.044 -25.859,-16.044C-29.767,-16.044 -33.576,-14.678 -36.586,-12.195C-38.958,-10.24 -40.75,-7.669 -41.768,-4.802C-43.054,-4.948 -44.375,-4.87 -45.649,-4.569C-48.583,-3.874 -51.071,-2.079 -52.654,0.486C-54.237,3.053 -54.728,6.081 -54.032,9.014C-53.443,11.502 -52.012,13.736 -50.001,15.306C-48.021,16.852 -45.556,17.703 -43.057,17.703L-42.069,17.703L-40.189,13.164L-43.004,13.164L-43.057,13.165C-46.195,13.165 -48.893,11.028 -49.616,7.969C-50.032,6.215 -49.739,4.404 -48.792,2.87C-47.847,1.336 -46.358,0.263 -44.604,-0.153C-44.09,-0.275 -43.565,-0.336 -43.044,-0.336C-42.313,-0.336 -41.588,-0.217 -40.891,0.019C-40.275,0.228 -39.599,0.163 -39.035,-0.161C-38.47,-0.485 -38.071,-1.035 -37.94,-1.672C-36.768,-7.37 -31.687,-11.506 -25.859,-11.506C-21.32,-11.506 -17.158,-9.023 -14.998,-5.025C-14.59,-4.27 -13.789,-3.81 -12.934,-3.835C-12.848,-3.838 -12.764,-3.839 -12.678,-3.839C-8.726,-3.839 -5.328,-1.149 -4.416,2.705C-3.527,6.459 -5.289,10.231 -8.482,12.05C-8.515,12.133 -8.546,12.216 -8.58,12.298L-10.759,17.557C-10.398,17.503 -10.039,17.434 -9.684,17.35C-2.688,15.694 1.656,8.655 0,1.659" style="fill:rgb(173,220,224);fill-rule:nonzero;"/>
        </g>
        <g transform="matrix(1,0,0,1,437.588,344.65)">
            <path d="M0,17.408C-0.289,17.408 -0.584,17.352 -0.867,17.234C-2.025,16.755 -2.575,15.428 -2.096,14.269L3.108,1.707C3.588,0.55 4.915,0 6.073,0.479C7.23,0.959 7.78,2.286 7.301,3.444L2.097,16.007C1.735,16.88 0.891,17.408 0,17.408" style="fill:rgb(29,87,220);fill-rule:nonzero;"/>
        </g>
        <g transform="matrix(1,0,0,1,443.123,344.65)">
            <path d="M0,25.033C-0.289,25.033 -0.584,24.977 -0.867,24.86C-2.025,24.381 -2.575,23.053 -2.096,21.895L6.268,1.707C6.747,0.55 8.074,0 9.232,0.479C10.39,0.959 10.939,2.286 10.46,3.444L2.098,23.632C1.735,24.506 0.891,25.033 0,25.033" style="fill:rgb(29,87,220);fill-rule:nonzero;"/>
        </g>
        <g transform="matrix(1,0,0,1,463.824,348.893)">
            <path d="M0,1.672L-1.465,0.827L0,-0.018C0.542,-0.332 0.729,-1.025 0.414,-1.568C0.102,-2.111 -0.593,-2.297 -1.135,-1.983L-2.599,-1.139L-2.599,-2.81C-2.599,-3.436 -3.106,-3.944 -3.733,-3.944C-4.359,-3.944 -4.868,-3.436 -4.868,-2.81L-4.868,-1.139L-6.315,-1.974C-6.857,-2.287 -7.552,-2.101 -7.865,-1.558C-8.179,-1.016 -7.993,-0.322 -7.449,-0.009L-6.002,0.827L-7.449,1.662C-7.993,1.976 -8.179,2.67 -7.865,3.212C-7.655,3.576 -7.274,3.78 -6.882,3.78C-6.689,3.78 -6.494,3.731 -6.315,3.628L-4.868,2.792L-4.868,4.482C-4.868,5.109 -4.359,5.616 -3.733,5.616C-3.106,5.616 -2.599,5.109 -2.599,4.482L-2.599,2.792L-1.135,3.637C-0.957,3.74 -0.762,3.789 -0.569,3.789C-0.177,3.789 0.204,3.586 0.414,3.222C0.729,2.679 0.542,1.985 0,1.672" style="fill:rgb(215,218,229);fill-rule:nonzero;"/>
        </g>
        <g transform="matrix(1,0,0,1,459.534,358.951)">
            <path d="M0,1.672L-1.463,0.827L0,-0.017C0.543,-0.331 0.729,-1.025 0.416,-1.567C0.102,-2.11 -0.591,-2.297 -1.134,-1.983L-2.598,-1.139L-2.598,-2.809C-2.598,-3.436 -3.105,-3.944 -3.732,-3.944C-4.358,-3.944 -4.866,-3.436 -4.866,-2.809L-4.866,-1.139L-6.315,-1.974C-6.857,-2.287 -7.551,-2.101 -7.865,-1.558C-8.178,-1.016 -7.992,-0.322 -7.449,-0.009L-6.002,0.827L-7.449,1.663C-7.992,1.977 -8.178,2.67 -7.865,3.213C-7.654,3.577 -7.272,3.78 -6.881,3.78C-6.688,3.78 -6.493,3.732 -6.315,3.628L-4.866,2.792L-4.866,4.483C-4.866,5.109 -4.358,5.616 -3.732,5.616C-3.105,5.616 -2.598,5.109 -2.598,4.483L-2.598,2.792L-1.134,3.638C-0.955,3.74 -0.761,3.789 -0.568,3.789C-0.177,3.789 0.205,3.586 0.416,3.222C0.729,2.68 0.543,1.985 0,1.672" style="fill:rgb(215,218,229);fill-rule:nonzero;"/>
        </g>
    </g>
</svg>
