<?xml version="1.0" encoding="UTF-8" standalone="no"?>
<!DOCTYPE svg PUBLIC "-//W3C//DTD SVG 1.1//EN" "http://www.w3.org/Graphics/SVG/1.1/DTD/svg11.dtd">
<svg width="100%" height="100%" viewBox="0 0 33 35" version="1.1" xmlns="http://www.w3.org/2000/svg" xmlns:xlink="http://www.w3.org/1999/xlink" xml:space="preserve" xmlns:serif="http://www.serif.com/" style="fill-rule:evenodd;clip-rule:evenodd;stroke-linejoin:round;stroke-miterlimit:2;">
    <g transform="matrix(1,0,0,1,-233.726,-127.976)">
        <g transform="matrix(1,0,0,1,255.525,135.752)">
            <path d="M0,20.778C-3.079,22.053 -6.471,22.053 -9.552,20.779C-12.631,19.502 -15.029,17.104 -16.306,14.024C-17.581,10.944 -17.581,7.552 -16.307,4.472C-15.029,1.392 -12.631,-1.007 -9.552,-2.283C-9.064,-2.484 -8.569,-2.654 -8.069,-2.792C-9.923,1.334 -10.137,6.186 -8.27,10.695C-6.401,15.205 -2.818,18.484 1.409,20.091C0.957,20.346 0.487,20.576 0,20.778M2.678,15.713C-0.402,14.437 -2.801,12.039 -4.076,8.958C-5.352,5.879 -5.353,2.487 -4.076,-0.594C-3.71,-1.477 -3.252,-2.304 -2.711,-3.065C-1.668,-4.537 -0.314,-5.761 1.271,-6.661C-0.611,-7.376 -2.621,-7.76 -4.662,-7.775C-6.871,-7.79 -9.119,-7.373 -11.288,-6.475C-19.971,-2.878 -24.096,7.077 -20.499,15.76C-16.901,24.445 -6.946,28.568 1.737,24.971C3.906,24.072 5.79,22.778 7.342,21.205C8.774,19.751 9.924,18.059 10.749,16.222C8.992,16.707 7.17,16.798 5.391,16.495C4.47,16.34 3.562,16.079 2.678,15.713" style="fill:rgb(207,207,226);fill-rule:nonzero;"/>
        </g>
    </g>
</svg>
