<?xml version="1.0" encoding="UTF-8" standalone="no"?>
<!DOCTYPE svg PUBLIC "-//W3C//DTD SVG 1.1//EN" "http://www.w3.org/Graphics/SVG/1.1/DTD/svg11.dtd">
<svg width="100%" height="100%" viewBox="0 0 51 51" version="1.1" xmlns="http://www.w3.org/2000/svg" xmlns:xlink="http://www.w3.org/1999/xlink" xml:space="preserve" xmlns:serif="http://www.serif.com/" style="fill-rule:evenodd;clip-rule:evenodd;stroke-linejoin:round;stroke-miterlimit:2;">
    <g transform="matrix(1,0,0,1,-124.901,-119.9)">
        <g transform="matrix(1,0,0,1,150,119.9)">
            <path d="M0,11.106C-1.253,11.106 -2.269,10.09 -2.269,8.836L-2.269,2.269C-2.269,1.016 -1.253,0 0,0C1.253,0 2.27,1.016 2.27,2.269L2.27,8.836C2.27,10.09 1.253,11.106 0,11.106" style="fill:rgb(228,195,41);fill-rule:nonzero;"/>
        </g>
        <g transform="matrix(1,0,0,1,133.738,142.73)">
            <path d="M0,4.539L-6.568,4.539C-7.821,4.539 -8.837,3.522 -8.837,2.269C-8.837,1.017 -7.821,0 -6.568,0L0,0C1.253,0 2.269,1.017 2.269,2.269C2.269,3.522 1.253,4.539 0,4.539" style="fill:rgb(228,195,41);fill-rule:nonzero;"/>
        </g>
        <g transform="matrix(1,0,0,1,149.999,158.993)">
            <path d="M0,11.106C-1.253,11.106 -2.269,10.089 -2.269,8.836L-2.269,2.269C-2.269,1.015 -1.253,0 0,0C1.253,0 2.27,1.015 2.27,2.269L2.27,8.836C2.27,10.089 1.253,11.106 0,11.106" style="fill:rgb(228,195,41);fill-rule:nonzero;"/>
        </g>
        <g transform="matrix(1,0,0,1,172.83,142.73)">
            <path d="M0,4.539L-6.567,4.539C-7.821,4.539 -8.837,3.522 -8.837,2.269C-8.837,1.017 -7.821,0 -6.567,0L0,0C1.253,0 2.27,1.017 2.27,2.269C2.27,3.522 1.253,4.539 0,4.539" style="fill:rgb(228,195,41);fill-rule:nonzero;"/>
        </g>
        <g transform="matrix(1,0,0,1,150,152.47)">
            <path d="M0,-14.941C-4.119,-14.941 -7.47,-11.589 -7.47,-7.47C-7.47,-3.351 -4.119,0 0,0C4.119,0 7.471,-3.351 7.471,-7.47C7.471,-11.589 4.119,-14.941 0,-14.941M0,4.538C-6.622,4.538 -12.009,-0.848 -12.009,-7.47C-12.009,-14.091 -6.622,-19.479 0,-19.479C6.622,-19.479 12.009,-14.091 12.009,-7.47C12.009,-0.848 6.622,4.538 0,4.538" style="fill:rgb(228,195,41);fill-rule:nonzero;"/>
        </g>
        <g transform="matrix(1,0,0,1,138.501,128.688)">
            <path d="M0,7.081C-0.581,7.081 -1.162,6.86 -1.604,6.417L-3.927,4.095C-4.813,3.209 -4.813,1.772 -3.927,0.886C-3.041,0 -1.604,0 -0.718,0.886L1.604,3.208C2.491,4.094 2.491,5.531 1.604,6.417C1.161,6.86 0.581,7.081 0,7.081" style="fill:rgb(228,195,41);fill-rule:nonzero;"/>
        </g>
        <g transform="matrix(1,0,0,1,136.179,154.008)">
            <path d="M0,7.082C-0.581,7.082 -1.161,6.86 -1.604,6.417C-2.491,5.531 -2.491,4.094 -1.604,3.208L0.718,0.887C1.604,0 3.041,0 3.927,0.887C4.813,1.772 4.813,3.209 3.927,4.096L1.604,6.417C1.162,6.86 0.581,7.082 0,7.082" style="fill:rgb(228,195,41);fill-rule:nonzero;"/>
        </g>
        <g transform="matrix(1,0,0,1,163.821,154.008)">
            <path d="M0,7.082C-0.58,7.082 -1.162,6.86 -1.604,6.417L-3.926,4.095C-4.812,3.209 -4.812,1.772 -3.926,0.887C-3.04,0 -1.604,0 -0.717,0.887L1.604,3.208C2.491,4.094 2.491,5.531 1.604,6.417C1.162,6.86 0.581,7.082 0,7.082" style="fill:rgb(228,195,41);fill-rule:nonzero;"/>
        </g>
        <g transform="matrix(1,0,0,1,161.499,128.688)">
            <path d="M0,7.081C-0.581,7.081 -1.162,6.86 -1.604,6.417C-2.491,5.53 -2.491,4.094 -1.604,3.208L0.717,0.886C1.604,0 3.041,0 3.927,0.886C4.812,1.771 4.812,3.209 3.926,4.095L1.604,6.417C1.161,6.86 0.581,7.081 0,7.081" style="fill:rgb(228,195,41);fill-rule:nonzero;"/>
        </g>
    </g>
</svg>
