<?xml version="1.0" encoding="UTF-8" standalone="no"?>
<!DOCTYPE svg PUBLIC "-//W3C//DTD SVG 1.1//EN" "http://www.w3.org/Graphics/SVG/1.1/DTD/svg11.dtd">
<svg width="100%" height="100%" viewBox="0 0 68 41" version="1.1" xmlns="http://www.w3.org/2000/svg" xmlns:xlink="http://www.w3.org/1999/xlink" xml:space="preserve" xmlns:serif="http://www.serif.com/" style="fill-rule:evenodd;clip-rule:evenodd;stroke-linejoin:round;stroke-miterlimit:2;">
    <g transform="matrix(1,0,0,1,-416.29,-127.051)">
        <g transform="matrix(1,0,0,1,472.628,138.507)">
            <path d="M0,17.523C-0.583,17.66 -1.179,17.737 -1.772,17.751C-1.551,16.189 -1.612,14.561 -1.997,12.935C-2.677,10.062 -4.33,7.481 -6.654,5.667C-8.68,4.085 -11.146,3.134 -13.688,2.936C-15.89,-0.463 -19.208,-2.921 -23.011,-4.059C-20.852,-5.853 -18.087,-6.917 -15.13,-6.917C-10.591,-6.917 -6.43,-4.434 -4.269,-0.436C-3.861,0.319 -3.062,0.78 -2.204,0.753C-2.119,0.751 -2.034,0.75 -1.949,0.75C2.003,0.75 5.4,3.441 6.312,7.294C7.393,11.854 4.561,16.442 0,17.523M-9.04,22.292C-10.058,23.199 -11.308,23.875 -12.727,24.21C-13.371,24.362 -14.031,24.44 -14.688,24.44L-45.054,24.44C-48.192,24.44 -50.89,22.304 -51.613,19.245C-52.029,17.49 -51.736,15.679 -50.79,14.146C-49.843,12.612 -48.356,11.539 -46.602,11.123C-46.087,11.002 -45.563,10.94 -45.041,10.94C-44.559,10.94 -44.08,10.991 -43.61,11.094C-43.368,11.148 -43.126,11.213 -42.889,11.295C-42.272,11.504 -41.596,11.439 -41.031,11.115C-40.467,10.791 -40.068,10.24 -39.937,9.604C-38.765,3.906 -33.685,-0.23 -27.855,-0.23C-27.282,-0.23 -26.715,-0.191 -26.157,-0.114C-22.297,0.421 -18.883,2.758 -16.995,6.252C-16.587,7.006 -15.787,7.467 -14.931,7.44C-14.845,7.438 -14.761,7.437 -14.675,7.437C-10.723,7.437 -7.325,10.127 -6.413,13.981C-6.109,15.262 -6.115,16.546 -6.381,17.753C-6.768,19.507 -7.703,21.1 -9.04,22.292M10.73,6.248C10.049,3.375 8.396,0.794 6.072,-1.021C4.048,-2.602 1.58,-3.554 -0.963,-3.75C-4.061,-8.535 -9.373,-11.456 -15.13,-11.456C-19.037,-11.456 -22.848,-10.089 -25.856,-7.607C-26.881,-6.762 -27.798,-5.802 -28.59,-4.752C-32.238,-4.592 -35.763,-3.246 -38.583,-0.92C-40.954,1.035 -42.747,3.607 -43.765,6.474C-45.05,6.327 -46.371,6.405 -47.646,6.707C-50.581,7.401 -53.068,9.197 -54.652,11.762C-56.234,14.328 -56.725,17.356 -56.03,20.291C-55.441,22.777 -54.01,25.012 -51.998,26.582C-50.02,28.127 -47.553,28.979 -45.054,28.979L-14.687,28.979C-13.679,28.979 -12.667,28.859 -11.681,28.626C-7.983,27.751 -5.027,25.373 -3.306,22.292L-1.961,22.292C-0.951,22.292 0.06,22.172 1.046,21.939C8.042,20.283 12.385,13.244 10.73,6.248" style="fill:rgb(173,220,224);fill-rule:nonzero;"/>
        </g>
    </g>
</svg>
